<svg xmlns="http://www.w3.org/2000/svg" version="1.1" xmlns:xlink="http://www.w3.org/1999/xlink" width="1500" height="1500" viewBox="0 0 1500 1500"><rect width="1500" height="1500" x="0" y="0" id="background" stroke="transparent" fill="#d90000"></rect><svg xml:space="preserve" width="1000" height="1000" data-version="2" data-id="lg_VjwLzZ6Rlzy4fKPBoR" viewBox="0 0 568 237" x="250" y="250"><rect width="100%" height="100%" fill="transparent"></rect><path fill="#fff" d="M78.895 69.953a24.563 24.563 0 1 0 24.563 24.563c0-13.398-11.165-24.563-24.563-24.563m0 43.065c-9.889 0-18.183-8.294-18.183-18.183s8.294-18.183 18.183-18.183 18.183 8.294 18.183 18.183-8.294 18.183-18.183 18.183"></path><path fill="#fff" d="M78.895 51.451c-23.606 0-43.065 19.459-43.065 43.384 0 23.606 19.459 43.065 43.065 43.065s43.065-19.459 43.065-43.065c0-23.925-19.459-43.384-43.065-43.384m0 80.069c-20.097 0-36.685-16.588-36.685-36.685S58.798 58.15 78.895 58.15s36.685 16.269 36.685 36.685c0 20.097-16.588 36.685-36.685 36.685"></path><path fill="#fff" d="M78.895 27.845c-40.513 0-73.37 32.857-73.37 73.689 0 39.875 68.266 111.969 71.137 115.159l2.233 2.552 2.233-2.552c2.871-3.19 71.137-75.284 71.137-115.159 0-40.832-32.857-73.689-73.37-73.689m0 181.83c-12.122-13.079-66.99-74.965-66.99-108.141 0-37.004 29.986-67.309 66.99-67.309s66.99 29.986 66.99 67.309c0 33.176-54.868 95.062-66.99 108.141"></path><path fill="#ffdc00" d="M209.92 96.82q.25-1.27 3.17-2.41 2.92-1.14 7.24-2.41 4.32-1.27 9.52-2.79 5.21-1.53 10.03-3.43 4.82-1.9 8.82-4.32 4-2.41 5.91-5.58 0-1.91-2.48-2.92-2.47-1.02-6.6-1.72-4.13-.7-9.4-1.14-5.26-.44-10.79-1.27-5.52-.82-10.79-2.03t-9.39-3.43q-4.13-2.22-6.6-5.65-2.48-3.43-2.48-8.38 0-4.95 2.16-9.84 2.16-4.88 5.78-9.45 3.61-4.57 8.25-8.51 4.63-3.93 9.71-6.85 5.08-2.92 10.09-4.57 5.02-1.66 9.33-1.66 1.15 0 2.42-.06t2.22.13q.95.19 1.58.95.64.76.64 2.29 0 3.68-2.41 5.26-2.42 1.59-5.84 1.59l-4.95-3.55q-2.92 0-6.42 1.65-3.49 1.65-7.1 4.38-3.62 2.73-7.05 6.28-3.43 3.56-6.03 7.36-2.6 3.81-4.19 7.62-1.59 3.81-1.59 6.86 0 4.44 2.48 7.17 2.47 2.73 6.6 4.32 4.13 1.58 9.46 2.34 5.33.77 10.79 1.27 5.46.51 10.79.96 5.33.44 9.46 1.58 4.12 1.15 6.6 3.05 2.48 1.9 2.48 5.21 1.39 2.03-.58 4.63-1.96 2.6-6.09 5.2-4.13 2.61-9.78 5.21-5.64 2.6-11.61 4.7-5.97 2.09-11.55 3.55-5.59 1.46-9.53 1.84-1.14 0-1.96-.76-.83-.76-.32-2.67m105.37 6.35-1.52-55.86q-4.7-1.77-9.02 1.4-4.31 3.17-8.25 8.95-3.93 5.78-7.49 13.14-3.55 7.36-6.6 13.96-3.05 6.61-5.52 11.3-2.48 4.7-4.51 5.21-1.52 0-2.35-.57-.82-.57-.82-2.86V8.59q0-1.14.95-1.39.95-.26 2.09-.13 1.15.13 2.16.57 1.02.44 1.27.95l1.65 71.48q1.4-2.29 2.6-6.41 1.21-4.13 2.86-8.89 1.65-4.76 3.87-9.52t5.52-8.57q3.31-3.81 8.07-5.91 4.76-2.09 11.23-1.46 4.32 0 6.98 2.73 2.67 2.73 2.8 7.18l1.27 50.65q0 .51-.19 1.46t-1.02 1.65q-.82.7-2.28.89-1.46.19-3.75-.7m15.61-2.91q0-8.25-.32-17.39t-.64-18.47q-.31-9.33-.19-18.35.13-9.01 1.15-16.88.25-.13 1.2-.19.95-.07 1.33-.07 1.78 0 2.86.58 1.08.57 1.08 2.47 0 7.49-.06 16.31-.07 8.83-.13 17.91-.06 9.07-.06 17.96t.25 16.12q.13 2.16-.83 2.86-.95.7-2.34.7-1.53 0-2.54-.7-1.02-.7-.76-2.86m-2.8-90.9q0-1.52 1.02-2.03 1.01-.51 2.28-.51 2.54 0 3.18 1.65.63 1.66.63 3.81-.76 1.4-1.9 1.97-1.14.57-2.35.26-1.21-.32-2.03-1.59-.83-1.27-.83-3.56m35.31 94.71q-.64-2.92.44-7.55 1.08-4.64 3.11-10.1 2.03-5.45 4.76-11.29 2.73-5.84 5.33-11.11 2.61-5.27 4.64-9.59 2.03-4.31 2.79-6.85 0-.13.06-.32.07-.19.07-.45 0-.25-.07-.5-.06-.26-.06-.38-3.55 1.39-7.81 3.11-4.25 1.71-8.57 3.3-4.31 1.58-8.44 2.92-4.13 1.33-7.55 2.09-.51.38-1.78-.25-1.27-.64-2.41-1.72-1.15-1.08-1.59-2.28-.44-1.21.83-2.22 4.18 0 9.9-1.72 5.71-1.71 11.61-4 5.91-2.28 11.56-4.5t9.96-3.11q4.19 0 4.19 4.19 0 4.57-1.58 8.95-1.59 4.38-3.94 8.57-2.35 4.19-5.08 8.25t-5.08 8.25q-2.35 4.19-4 8.51-1.65 4.31-1.65 8.88v1.53l46.47-9.53h.89q1.77 0 3.23 1.08t2.16 2.42q.7 1.33.07 2.73-.64 1.39-3.18 2.03-.51 0-1.08.12-.57.13-2.41.45-1.84.32-5.39.89-3.56.57-9.97 1.71-6.41 1.14-16.25 2.98t-24.18 4.51m95.34-16q-.51 1.53-2.48 4.13-1.97 2.6-4.63 5.21-2.67 2.6-5.52 4.57-2.86 1.96-5.02 1.96-4.06 0-6.66-3.8-2.61-3.81-4-9.78-1.4-5.97-1.91-13.27t-.63-14.28q-.13-6.98-.13-12.69 0-5.72-.38-8.64.51-1.27 1.33-1.52.83-.25 1.97-.25 1.02 0 1.84.25.83.25 1.46 1.52 0 1.4.06 4.7.07 3.3.32 7.43.26 4.12.51 8.63.25 4.51.44 8.57.19 4.06.39 7.3.19 3.24.31 4.76.13.89.32 2.92t.63 4.25q.45 2.22 1.15 4 .7 1.78 1.84 1.91 1.9 0 3.87-1.65 1.97-1.66 3.87-4.19 1.91-2.54 3.56-5.59 1.65-3.05 2.98-5.9 1.33-2.86 2.03-5.15.7-2.28.83-3.3.25-2.15.5-6.15.26-4 .39-8.57.12-4.57.19-8.64.06-4.06.06-6.22l6.98.38q.13 10.29-.13 18.6-.25 8.32-.12 15.62.12 7.3 1.14 14.15 1.02 6.86 3.68 14.22-.38.38-1.52 1.08-1.14.7-1.65.7-3.18 0-4.25-2.09-1.08-2.1-1.4-4.96-.32-2.85-.51-5.71t-1.71-4.51m18.14 17.51 3.68-100.29q2.67-2.54 4.26-2.03 1.58.51 2.34 3.43.77 2.92.89 7.61.13 4.7-.06 10.61-.19 5.9-.7 12.44-.51 6.53-.89 12.82-.38 6.28-.5 12-.13 5.71.38 9.9h.38q.25 0 .38-.13 6.6-6.6 11.8-13.96 5.21-7.37 9.4-13.9 4.19-6.54 7.43-11.37 3.23-4.82 6.03-6.6 1.9 0 3.23.64 1.34.63 1.34 2.92 0 .25-.07.82-.06.57-.06.83-3.17 6.47-6.98 13.01-3.81 6.54-8.25 12.63-4.45 6.09-9.59 11.55-5.14 5.46-11.11 9.91 0 .12-.06.44-.07.32-.07.44 0 1.27 2.1 2.8 2.09 1.52 5.33 2.92 3.24 1.39 7.24 2.79 4 1.4 7.87 2.41 3.87 1.02 7.24 1.65 3.36.64 5.26.64 0 .51.07 1.9.06 1.4-.19 2.92-.26 1.53-.89 2.73-.64 1.21-2.03 1.21h-.51q-.25 0-.38-.13l-36.31-14.6q-.13 7.49-1.02 12.13-.88 4.63-2.09 6.85-1.21 2.22-2.54 2.1-1.33-.13-2.35-2.04m55.62-20.17q-.89-5.84-.89-11.36 0-5.53.7-11.24.69-5.71 2.03-11.87 1.33-6.16 3.11-13.27 0-1.39.76-2.6.76-1.2 2.03-2.03 1.27-.82 2.67-1.33 1.39-.51 2.66-.51 2.8 0 5.08 1.78 2.29 1.77 4.13 4.31 1.84 2.54 3.17 5.4 1.33 2.86 2.22 4.89 1.02 4.44 1.46 10.09.45 5.65.07 11.49t-1.78 11.49q-1.4 5.65-3.94 10.34-2.54 4.7-6.53 7.88-4 3.17-9.46 3.93-2.92 0-4.45-1.97-1.52-1.96-2.22-4.82-.7-2.86-.76-5.78-.06-2.92-.06-4.82m6.47-.38q0 1.27.07 2.41.06 1.14.25 2.22.19 1.08.51 2.29.31 1.2.82 2.73h.76q3.05 0 5.21-2.04 2.16-2.03 3.68-5.26 1.52-3.24 2.54-7.24t1.59-7.87q.57-3.87.76-7.24.19-3.36.19-5.39V57.1q0-1.65-.13-3.75-.13-2.09-.44-4.31-.32-2.23-.95-4.07-.64-1.84-1.66-2.98-1.01-1.14-2.66-1.14-2.79-.89-4.76.38-1.97 1.27-3.18 4.25-1.2 2.99-1.84 7.3-.63 4.32-.76 9.52-.13 5.21-.06 11.05.06 5.84.06 11.68M270.73 229.25l-7.36-84.55q-.51-.25-1.46 2.86-.96 3.11-2.48 8-1.52 4.88-3.24 11.04-1.71 6.16-3.74 12.25-2.03 6.1-4.06 11.36-2.04 5.27-4.07 8.32-2.03 3.05-3.81 3.36-1.77.32-3.17-3.61-1.01-1.78-2.86-5.65-1.84-3.88-4.25-8.7l-5.08-10.16q-2.66-5.33-5.01-10.09-2.35-4.76-4.32-8.57-1.97-3.81-2.85-5.58-1.53-2.8-2.73-4.51-1.21-1.72-3.75-1.72 0 8.89 1.02 19.56 1.01 10.66 2.22 21.58 1.2 10.92 2.22 21.52 1.02 10.6 1.02 19.61.5 1.14-.32 2.16-.83 1.01-2.29 1.52t-3.17.07q-1.71-.45-2.86-2.1-1.14-11.3-1.2-23.04-.07-11.74-.19-23.55-.13-11.81-1.02-23.68t-3.55-23.67q-.13-2.29.76-2.86.89-.57 2.28-.57 3.05 0 5.53 1.46 2.47 1.46 4.5 3.68t3.62 4.89q1.59 2.66 2.86 4.82 1.01 1.65 2.79 5.21l4.06 8.25q2.29 4.57 4.76 9.58 2.48 5.02 4.76 9.52 2.29 4.51 4.19 8 1.91 3.49 2.92 5.02.51 0 .89-.38t1.08-2.16q.7-1.78 1.91-5.46 1.2-3.68 3.36-10.16 2.16-6.47 5.33-16.37 3.18-9.91 7.75-24.12.25-.64 1.65-1.15 1.39-.51 2.54-.51 1.14 0 1.58.77.45.76.7 2.54 1.14 10.79 1.84 22.53.7 11.74 1.84 23.74 1.14 12 2.86 23.8 1.71 11.81 4.76 22.47zm51.91-3.43q-.63-3.3-1.08-7.93-.44-4.63-.95-9.39-.51-4.77-1.2-8.96-.7-4.18-2.1-6.85-6.47 13.2-11.42 20.76-4.96 7.55-8.7 10.79-3.75 3.23-6.28 3.11-2.54-.13-4.19-2.29-1.65-2.16-2.35-5.52-.7-3.36-.95-6.28 0-2.8 1.26-7.88 1.27-5.07 3.43-11.1 2.16-6.03 5.14-12.25 2.99-6.23 6.42-11.3 3.42-5.08 7.1-8.38 3.69-3.3 7.37-3.3 5.46-.89 8.06 2.35 2.6 3.23.95 10.85 0 8.38.7 14.35.7 5.96 1.52 11.42.83 5.46 1.53 11.43.69 5.96.69 14.34 0 1.53-.31 2.61-.32 1.07-3.11 1.07-.38 0-.96-.63-.57-.63-.57-1.02m-6.85-56.74q-1.4-2.04-3.81-.38-2.41 1.65-5.08 5.45-2.66 3.81-5.46 9.14-2.79 5.34-5.2 10.8-2.41 5.45-4.19 10.34-1.78 4.89-2.41 8.06 0 4.57 1.39 5.15 1.4.57 3.43-1.46 2.03-2.04 4.63-5.84 2.61-3.81 5.08-8.13 2.48-4.32 4.7-8.38 2.22-4.06 3.49-6.6 1.14-2.67 1.78-4.95.63-2.29 1.08-4.38.44-2.1.5-4.25.07-2.16.07-4.57m27.43 57.13-9.01-58.28v-1.01q0-1.27.95-1.78t2.22-.51q1.02 0 1.9.19.89.19 1.4 1.46.38 1.91.76 5.27.38 3.37.89 7.43t1.08 8.57q.57 4.5 1.14 8.5t1.21 7.18q.63 3.17 1.4 4.82-.39-12.19.76-21.14 1.14-8.95 4.38-14.6 3.23-5.65 8.88-7.87 5.65-2.22 14.16-.95 3.93 0 3.93 4.19 0 1.65-2.15 2.22-2.16.57-4.83.76-2.66.19-5.2.45-2.54.25-3.68 1.27-4.57 2.54-6.42 7.87-1.84 5.33-2.6 12.57-.76 7.23-1.08 15.8-.31 8.57-1.71 17.59 0 1.26-1.02 1.9-1.01.63-2.47.63-1.46 0-2.8-.63-1.33-.64-2.09-1.9m42.53 5.72 3.68-100.29q2.67-2.54 4.25-2.04 1.59.51 2.35 3.43t.89 7.62q.13 4.7-.06 10.6-.19 5.9-.7 12.44-.51 6.54-.89 12.82-.38 6.29-.51 12-.12 5.71.38 9.9h.38q.26 0 .39-.12 6.6-6.61 11.8-13.97 5.21-7.36 9.4-13.9t7.42-11.36q3.24-4.83 6.03-6.6 1.91 0 3.24.63 1.33.63 1.33 2.92 0 .25-.06.83-.06.57-.06.82-3.18 6.48-6.99 13.01-3.8 6.54-8.25 12.63-4.44 6.1-9.58 11.56-5.14 5.46-11.11 9.9 0 .13-.06.44-.07.32-.07.45 0 1.27 2.1 2.79 2.09 1.53 5.33 2.92 3.24 1.4 7.24 2.79 3.99 1.4 7.87 2.42 3.87 1.01 7.23 1.65 3.37.63 5.27.63 0 .51.06 1.91.07 1.39-.19 2.92-.25 1.52-.88 2.73-.64 1.2-2.04 1.2h-.5q-.26 0-.38-.13l-36.31-14.59q-.13 7.49-1.02 12.12-.89 4.63-2.09 6.85-1.21 2.23-2.54 2.1-1.34-.13-2.35-2.03m59.41-30.22q-.63.13-1.9.38-1.27.26-2.67.13-1.39-.13-2.47-.76-1.08-.64-1.08-2.16 0-.89.38-1.27t1.27-1.14q2.79-2.29 4.76-5.9 1.97-3.62 3.62-7.75 1.65-4.12 3.49-8.25 1.84-4.13 4.25-7.43t5.97-5.33q3.55-2.03 8.76-1.9 2.16 0 4.82 1.01 2.67 1.02 4.95 2.73 2.29 1.72 3.81 4.13 1.53 2.41 1.53 5.33.63 1.02-1.21 2.92-1.84 1.9-5.01 4.13-3.18 2.22-7.18 4.57-4 2.34-7.68 4.38-3.68 2.03-6.47 3.55-2.8 1.52-3.68 2.29-.64 1.27-1.02 2.92t-.57 3.11q-.19 1.46-.26 2.66-.06 1.21-.06 1.84 0 2.41-.19 5.33t.25 5.53q.45 2.6 2.1 4.31 1.65 1.72 5.59 1.72 4.18 0 7.87-2.1 3.68-2.09 6.85-5.14 3.18-3.05 5.78-6.6 2.6-3.56 4.7-6.67 2.09-3.11 3.74-5.14 1.65-2.03 2.79-2.03 1.27 0 2.73.45 1.46.44 1.46 2.09 0 2.29-1.84 5.46t-4.82 6.73q-2.99 3.55-6.86 7.04-3.87 3.5-7.81 6.22-3.93 2.73-7.74 4.45-3.81 1.71-6.73 1.71-5.71 0-8.63-2.79-2.92-2.79-4.13-6.98-1.2-4.19-1.27-8.95-.06-4.76-.19-8.83m23.36-34.27q-2.16 0-4.57 2.09-2.41 2.1-4.5 5.08-2.1 2.98-3.43 6.09-1.34 3.11-1.34 5.14 1.91 0 5.53-1.46t7.17-3.61q3.55-2.16 6.22-4.57 2.67-2.42 2.67-4.57 0-1.15-.89-1.91t-2.1-1.27q-1.2-.51-2.47-.76-1.27-.25-2.29-.25m39.61 62.71-3.17-55.22q-1.27.63-2.35 1.33-1.08.7-2.1 1.27-1.01.57-2.03.82-1.01.26-2.15 0-.77 0-1.27-.95-.51-.95-.83-2.16-.32-1.2-.44-2.41-.13-1.2 0-1.84l12.18-6.98.77-32.5q.25-1.65 2.03-1.33 1.77.31 3.68.82.25 0 .82.19t.83.32q-.26 3.43-.57 7.42-.32 4-.57 8-.26 4-.32 7.81-.06 3.81.32 6.86l19.04-5.34q.51-.12.82.7.32.83.64 1.97.32 1.14.44 2.29l.13 1.14-21.58 9.14q0 1.14.19 5.46.19 4.31.44 10.22.26 5.9.51 12.69.25 6.79.51 12.63.25 5.84.38 10.22.13 4.38.13 5.53-.26 3.8-2.23 3.8-1.96 0-4.25-1.9"></path></svg></svg>